<svg width="48" height="45" viewBox="0 0 48 45" fill="none" xmlns="http://www.w3.org/2000/svg">
<path d="M22 0C22 12.144 12.1702 22 0 22C12.1702 22 22 31.856 22 44C22 31.856 31.8298 22 44 22C31.8298 22 22 12.144 22 0ZM22 33.9093C19.6011 28.6293 15.3298 24.4053 10.0638 22C15.3298 19.5947 19.5426 15.312 22 10.0907C24.3989 15.3707 28.6702 19.5947 33.9362 22C28.6702 24.4053 24.3989 28.688 22 33.9093Z" fill="#D0D0D0"/>
<path d="M37 24C37 29.796 32.0851 34.5 26 34.5C32.0851 34.5 37 39.204 37 45C37 39.204 41.9149 34.5 48 34.5C41.9149 34.5 37 29.796 37 24ZM37 40.184C35.8005 37.664 33.6649 35.648 31.0319 34.5C33.6649 33.352 35.7713 31.308 37 28.816C38.1995 31.336 40.3351 33.352 42.9681 34.5C40.3351 35.648 38.1995 37.692 37 40.184Z" fill="#D0D0D0"/>
</svg>
